<?xml version="1.0" encoding="UTF-8"?><svg id="b" xmlns="http://www.w3.org/2000/svg" viewBox="0 0 154.35 23"><defs><style>.d,.e{fill:#fff;}.f{fill:#ff7352;}.f,.e{fill-rule:evenodd;}</style></defs><g id="c"><path class="f" d="m17.87,0H1.47L0,5.75h17.87c.79,0,1.55.3,2.11.84.56.54.87,1.27.87,2.03s-.31,1.49-.87,2.03c-.56.54-1.32.84-2.11.84H0v11.5h5.93v-5.75h11.94c2.37,0,4.65-.91,6.32-2.53s2.62-3.81,2.62-6.1-.94-4.48-2.62-6.1C22.52.91,20.24,0,17.87,0h0Z"/><path class="f" d="m41.61,17.25c-1.57-.02-3.07-.63-4.17-1.71-1.1-1.08-1.72-2.53-1.72-4.04s.62-2.97,1.72-4.04c1.1-1.08,2.6-1.69,4.17-1.71h13.42L56.5,0h-14.91C38.43,0,35.39,1.21,33.16,3.37c-2.24,2.16-3.49,5.08-3.49,8.13s1.26,5.98,3.49,8.13c2.24,2.16,5.27,3.37,8.43,3.37h13.43l1.46-5.75h-14.86Z"/><path class="e" d="m74.24,0h-13.43l-1.46,5.75h14.91c.79,0,1.57.13,2.3.42.73.28,1.4.71,1.96,1.24.56.53,1.01,1.17,1.31,1.87.3.7.46,1.46.46,2.22s-.16,1.51-.46,2.22c-.3.7-.75,1.34-1.31,1.87-.56.53-1.23.96-1.96,1.24-.73.28-1.51.43-2.3.42h-8.94v-8.67h-5.96v14.42h14.91c1.57,0,3.12-.3,4.56-.88,1.45-.58,2.76-1.43,3.87-2.5,1.11-1.07,1.98-2.34,2.58-3.73.6-1.4.91-2.89.9-4.4,0-1.51-.31-3.01-.91-4.4-.6-1.39-1.48-2.66-2.59-3.73-1.11-1.07-2.42-1.91-3.87-2.49C77.35.3,75.8,0,74.24,0Z"/><path class="e" d="m109.78,5.75h13.43L124.67,0h-14.91C106.6,0,103.57,1.21,101.33,3.37c-2.24,2.16-3.49,5.08-3.49,8.13s1.26,5.98,3.49,8.13c2.24,2.16,5.27,3.37,8.43,3.37h14.91v-14.38h-13.43l-1.45,5.76h8.94v2.87h-8.94c-1.57-.02-3.07-.63-4.17-1.71-1.1-1.08-1.72-2.53-1.72-4.04s.62-2.97,1.72-4.04c1.1-1.08,2.6-1.69,4.17-1.71h0Z"/><path class="d" d="m94.98,0h-5.96v23h5.96V0Z"/><path class="d" d="m139.43,19.52c-2.2,0-4.31-.84-5.87-2.34-1.56-1.5-2.43-3.54-2.43-5.66s.87-4.16,2.43-5.66,3.67-2.34,5.87-2.34h8.78c.67,0,1.32.26,1.79.72.47.46.74,1.08.74,1.73v8h-2.28V5.59h-9.03c-.81,0-1.61.15-2.35.45-.75.3-1.42.73-1.99,1.28-.57.55-1.02,1.2-1.33,1.92-.31.72-.47,1.49-.47,2.27s.16,1.55.47,2.27.76,1.37,1.33,1.92c.57.55,1.25.99,1.99,1.28.74.3,1.54.45,2.35.45h14.92V5.94c0-1.57-.65-3.08-1.8-4.19-1.15-1.11-2.71-1.74-4.34-1.74h-8.78c-3.16,0-6.19,1.21-8.42,3.36-2.23,2.15-3.49,5.07-3.49,8.12s1.25,5.97,3.49,8.12c2.23,2.15,5.26,3.36,8.42,3.36h14.01l.9-3.48h-14.91v.02Zm5.42-5.57h-5.42c-.67,0-1.32-.26-1.79-.72-.48-.46-.74-1.08-.74-1.73s.27-1.27.74-1.73c.47-.46,1.12-.72,1.79-.72h5.42v4.89Z"/></g></svg>